Coordinates
version=1
nRows=17
nColumns=40
inDegrees=yes

Units are S.I. units (second, meters, Newtons, ...)
If the header above contains a line with 'inDegrees', this indicates whether rotational values are in degrees (yes) or radians (no).

endheader
time	pelvis_tilt	pelvis_list	pelvis_rotation	pelvis_tx	pelvis_ty	pelvis_tz	hip_flexion_r	hip_adduction_r	hip_rotation_r	knee_angle_r	knee_angle_r_beta	ankle_angle_r	subtalar_angle_r	mtp_angle_r	hip_flexion_l	hip_adduction_l	hip_rotation_l	knee_angle_l	knee_angle_l_beta	ankle_angle_l	subtalar_angle_l	mtp_angle_l	lumbar_extension	lumbar_bending	lumbar_rotation	arm_flex_r	arm_add_r	arm_rot_r	elbow_flex_r	pro_sup_r	wrist_flex_r	wrist_dev_r	arm_flex_l	arm_add_l	arm_rot_l	elbow_flex_l	pro_sup_l	wrist_flex_l	wrist_dev_l
      2.58500000	      0.84148644	      4.65122481	     -1.07848776	     -0.38128156	      0.90421038	     -0.79621569	     27.25241839	     -1.73717892	     -8.75783767	     48.02443703	      0.83818455	     10.73239234	      0.00000000	      0.00000000	     40.57760798	     -2.15981738	     -4.96383588	     16.98151578	      0.29638336	    -27.05501571	      0.00000000	      0.00000000	    -20.47389225	    -31.02677926	    -18.94103118	     68.42321132	    -13.31632206	     20.04445210	     56.27378730	     87.49542210	      0.00000000	      0.00000000	     89.94162686	     10.77137425	     59.61040387	     18.79389038	     64.23647709	      0.00000000	      0.00000000
      2.59000000	      0.81894016	      4.68179995	     -1.09562659	     -0.38163148	      0.90331047	     -0.79619509	     27.43139571	     -1.79100195	     -8.75982658	     48.28861189	      0.84279527	     10.85649117	      0.00000000	      0.00000000	     40.60664122	     -2.16175192	     -5.07019365	     16.95612133	      0.29594015	    -27.11226507	      0.00000000	      0.00000000	    -20.53095620	    -31.06411944	    -18.98550891	     68.53705241	    -13.29799643	     20.05195496	     56.23796902	     87.47887751	      0.00000000	      0.00000000	     89.94193172	     10.69997479	     59.01251718	     19.14764611	     63.11834372	      0.00000000	      0.00000000
      2.59500000	      0.76261922	      4.62659430	     -1.08854890	     -0.38204393	      0.90235369	     -0.79611340	     27.64098764	     -1.75324728	     -8.79985477	     48.53876843	      0.84716132	     10.95397539	      0.00000000	      0.00000000	     40.72880421	     -2.24557824	     -5.15215213	     17.06324104	      0.29780974	    -27.07358871	      0.00000000	      0.00000000	    -20.54928247	    -31.00338376	    -19.01252603	     68.64257977	    -13.30020719	     20.01934067	     56.23862199	     87.49969981	      0.00000000	      0.00000000	     89.94206110	     10.68094530	     58.74482089	     19.29912253	     62.79564648	      0.00000000	      0.00000000
      2.60000000	      0.69601082	      4.55777558	     -1.01421411	     -0.38244168	      0.90132841	     -0.79620925	     27.85427038	     -1.74839845	     -8.92024477	     48.80138651	      0.85174487	     11.09668667	      0.00000000	      0.00000000	     40.87931167	     -2.28700954	     -5.14800893	     17.18476153	      0.29993067	    -27.01147306	      0.00000000	      0.00000000	    -20.59664748	    -30.90660944	    -19.10974949	     68.75652832	    -13.32222204	     20.03893182	     56.24152058	     87.49238811	      0.00000000	      0.00000000	     89.94221753	     10.64392385	     58.39730020	     19.53548804	     62.27790497	      0.00000000	      0.00000000
      2.60500000	      0.69897374	      4.56818567	     -1.00398355	     -0.38280342	      0.90049052	     -0.79621655	     28.00207494	     -1.78970583	     -8.93722467	     49.07628337	      0.85654273	     11.20072394	      0.00000000	      0.00000000	     40.90228220	     -2.30536931	     -5.26283503	     17.22885177	      0.30070019	    -27.05557653	      0.00000000	      0.00000000	    -20.67515892	    -30.90837715	    -19.14726085	     68.85665709	    -13.31537036	     20.03999362	     56.19099837	     87.48348997	      0.00000000	      0.00000000	     89.94267429	     10.61669389	     58.00803144	     19.69235493	     62.38304613	      0.00000000	      0.00000000
      2.61000000	      0.66495114	      4.55944259	     -0.98176518	     -0.38314172	      0.89959945	     -0.79622552	     28.17716476	     -1.81778842	     -8.98561752	     49.31007436	      0.86062315	     11.33339878	      0.00000000	      0.00000000	     40.97602243	     -2.32781752	     -5.25981798	     17.29662106	      0.30188299	    -26.99979629	      0.00000000	      0.00000000	    -20.73277126	    -30.88626147	    -19.20370895	     68.96750418	    -13.30747973	     20.04566001	     56.16121646	     87.50045957	      0.00000000	      0.00000000	     89.94269713	     10.56677654	     57.64442744	     19.92425459	     62.30241735	      0.00000000	      0.00000000
      2.61500000	      0.62166292	      4.50745046	     -0.94926760	     -0.38352288	      0.89857484	     -0.79617871	     28.38715334	     -1.79288226	     -9.02195476	     49.60646573	      0.86579616	     11.43783326	      0.00000000	      0.00000000	     41.11566630	     -2.40510515	     -5.38418755	     17.45097933	      0.30457705	    -26.99008424	      0.00000000	      0.00000000	    -20.76731219	    -30.81853795	    -19.23766815	     69.07960995	    -13.33439078	     20.07206218	     56.15826893	     87.49637333	      0.00000000	      0.00000000	     89.94284753	     10.52190086	     57.16438476	     20.25706462	     61.65660084	      0.00000000	      0.00000000
      2.62000000	      0.58070619	      4.47059463	     -0.90557891	     -0.38388129	      0.89763538	     -0.79619860	     28.56986415	     -1.80344015	     -9.09801984	     49.86087033	      0.87023636	     11.55340977	      0.00000000	      0.00000000	     41.22987052	     -2.45197212	     -5.41826651	     17.56817180	      0.30662244	    -26.92141976	      0.00000000	      0.00000000	    -20.80332427	    -30.77841550	    -19.28071699	     69.16500025	    -13.33853363	     20.04439588	     56.13164318	     87.51758264	      0.00000000	      0.00000000	     89.94309607	     10.55702086	     57.08155711	     20.24794017	     62.04106395	      0.00000000	      0.00000000
      2.62500000	      0.54990956	      4.50420521	     -0.90950412	     -0.38434173	      0.89671020	     -0.79620592	     28.77226706	     -1.86040295	     -9.10989788	     50.12136097	      0.87478277	     11.67991326	      0.00000000	      0.00000000	     41.32403284	     -2.46719973	     -5.51299514	     17.65708429	      0.30817426	    -26.89989637	      0.00000000	      0.00000000	    -20.84987169	    -30.81230150	    -19.32712650	     69.26467383	    -13.31890682	     20.02842353	     56.11102934	     87.50778110	      0.00000000	      0.00000000	     89.94341487	     10.51672647	     56.64098108	     20.51906433	     62.11097515	      0.00000000	      0.00000000
      2.63000000	      0.50841832	      4.45677904	     -0.89269103	     -0.38472098	      0.89573506	     -0.79617452	     28.96055573	     -1.82918352	     -9.13164029	     50.39062267	      0.87948228	     11.81542431	      0.00000000	      0.00000000	     41.44936316	     -2.56343426	     -5.64486516	     17.78741283	      0.31044892	    -27.04466267	      0.00000000	      0.00000000	    -20.87345441	    -30.74145657	    -19.33594574	     69.37247686	    -13.33154997	     20.03866134	     56.08204626	     87.51488706	      0.00000000	      0.00000000	     89.94359643	     10.49023448	     56.30004250	     20.66419349	     62.31449227	      0.00000000	      0.00000000
      2.63500000	      0.52195908	      4.46839852	     -0.90649256	     -0.38506052	      0.89485958	     -0.79618826	     29.10140236	     -1.86988817	     -9.15833177	     50.64330516	      0.88389242	     11.94996781	      0.00000000	      0.00000000	     41.49427374	     -2.58572238	     -5.71626583	     17.84210267	      0.31140344	    -26.95656739	      0.00000000	      0.00000000	    -20.94260120	    -30.75832188	    -19.33795337	     69.47570099	    -13.34302179	     20.05031769	     56.03803785	     87.51307806	      0.00000000	      0.00000000	     89.94397899	     10.49330041	     56.06059849	     20.79797451	     62.15418799	      0.00000000	      0.00000000
      2.64000000	      0.45957438	      4.44193969	     -0.89106861	     -0.38544698	      0.89380509	     -0.79620024	     29.31839823	     -1.86130146	     -9.18731353	     50.90159051	      0.88840035	     12.11217381	      0.00000000	      0.00000000	     41.66584832	     -2.66117153	     -5.86200682	     18.00876895	      0.31431231	    -27.00007657	      0.00000000	      0.00000000	    -20.94226992	    -30.69348484	    -19.37364331	     69.60239617	    -13.32491451	     20.08205648	     56.01240001	     87.48033790	      0.00000000	      0.00000000	     89.94431172	     10.41892219	     55.56812805	     21.07700438	     61.40392123	      0.00000000	      0.00000000
      2.64500000	      0.40319169	      4.41364038	     -0.86992598	     -0.38582095	      0.89281173	     -0.79621353	     29.52239423	     -1.85664859	     -9.22491210	     51.15686397	      0.89285571	     12.25386015	      0.00000000	      0.00000000	     41.80996829	     -2.71703183	     -5.88224736	     18.10833105	      0.31605000	    -26.99903276	      0.00000000	      0.00000000	    -20.94084337	    -30.66775698	    -19.38123521	     69.66981148	    -13.33461362	     20.04469481	     55.98895142	     87.50381765	      0.00000000	      0.00000000	     89.94451387	     10.46059451	     55.39970029	     21.12113560	     61.90581658	      0.00000000	      0.00000000
      2.65000000	      0.37950160	      4.43834144	     -0.85530684	     -0.38625534	      0.89187419	     -0.79622779	     29.70481772	     -1.90353808	     -9.22292742	     51.42225813	      0.89748771	     12.38721470	      0.00000000	      0.00000000	     41.91181209	     -2.74415684	     -6.03427738	     18.18827088	      0.31744521	    -27.03569368	      0.00000000	      0.00000000	    -20.99256135	    -30.67832026	    -19.42465177	     69.77065559	    -13.32277018	     20.01823584	     55.95406491	     87.47701122	      0.00000000	      0.00000000	     89.94490351	     10.42818711	     55.13219076	     21.28917851	     61.87105970	      0.00000000	      0.00000000
      2.65500000	      0.39857951	      4.44409662	     -0.84592807	     -0.38656975	      0.89100196	     -0.79620311	     29.82604719	     -1.93321315	     -9.24849036	     51.67245547	      0.90185448	     12.54665243	      0.00000000	      0.00000000	     41.96695659	     -2.78051399	     -6.08234801	     18.28688904	      0.31916642	    -27.05351300	      0.00000000	      0.00000000	    -21.07024700	    -30.65645953	    -19.44590103	     69.87096562	    -13.31696730	     20.01863370	     55.92792842	     87.51554470	      0.00000000	      0.00000000	     89.94496067	     10.38384852	     54.75290016	     21.53070428	     61.42077620	      0.00000000	      0.00000000
      2.66000000	      0.33699595	      4.45844707	     -0.85010926	     -0.38698129	      0.89000970	     -0.79623498	     30.06074609	     -1.96225596	     -9.23667010	     51.94701633	      0.90664647	     12.65782624	      0.00000000	      0.00000000	     42.10937041	     -2.81856528	     -6.15401530	     18.36787680	      0.32057993	    -27.04995575	      0.00000000	      0.00000000	    -21.05351439	    -30.66097516	    -19.43156207	     69.95570903	    -13.32441455	     20.00814479	     55.86860236	     87.50550467	      0.00000000	      0.00000000	     89.94528465	     10.38070149	     54.34547588	     21.60969001	     64.07817159	      0.00000000	      0.00000000
      2.66500000	      0.29052845	      4.42593243	     -0.84474078	     -0.38742386	      0.88895891	     -0.79625400	     30.27420597	     -1.93744198	     -9.21333813	     52.22613531	      0.91151802	     12.79278846	      0.00000000	      0.00000000	     42.26762644	     -2.89798152	     -6.25242392	     18.48209124	      0.32257334	    -27.05338299	      0.00000000	      0.00000000	    -21.02905434	    -30.60279852	    -19.38948303	     70.04192444	    -13.33562442	     20.01167354	     55.84786681	     87.44893284	      0.00000000	      0.00000000	     89.94566570	     10.35331842	     54.07034852	     21.78739711	     66.08674621	      0.00000000	      0.00000000
